<?xml version="1.0" ?><!DOCTYPE svg  PUBLIC '-//W3C//DTD SVG 1.1//EN'  'http://www.w3.org/Graphics/SVG/1.1/DTD/svg11.dtd'><svg enable-background="new 0 0 512 512" height="512px" id="Layer_5" version="1.1" viewBox="0 0 512 512" width="512px" xml:space="preserve" xmlns="http://www.w3.org/2000/svg" xmlns:xlink="http://www.w3.org/1999/xlink"><path clip-rule="evenodd" d="M448,190.069c0-9.094,7.172-16.492,16-16.492  c8.844,0,16,7.398,16,16.492s-7.156,16.484-16,16.484C455.172,206.553,448,199.163,448,190.069L448,190.069z M416.016,512  c-4.844,0-9.562-0.547-14.102-1.609c-0.844-0.203-1.398-0.219-2.117-0.328l-158.945-35.484  c-28.039-7.031-48.844-33.015-48.844-64.062v-88.593c0-27.312-21.492-49.438-47.992-49.438c-2.383,0-4.305-0.203-6.023-0.484H35.375  C15.477,269.596,0,252.404,0,231.271V124.64c0-19.906,13.727-36.523,31.969-40.359c0.141-0.039,0.281-0.234,0.43-0.344  l107.938-24.094l0.023,0.109c1.18-0.289,2.398-0.469,3.656-0.469c8.828,0,15.984,7.391,15.984,16.492  c0,7.977-5.492,14.617-12.789,16.141v0.039L44.852,113.233C37.547,114.757,32,121.327,32,129.288v93.749  c0,9.094,7.18,16.469,16.008,16.469c0.734,0,1.18,0.273,1.688,0.484h102.844c40.148,4.375,71.469,39.371,71.469,81.934v88.593  c0,15.719,10.672,28.875,24.953,32.172c0.164,0.031,0.328,0.125,0.469,0.234l159.656,35.249c2.266,0.531,4.539,0.859,6.93,0.859  c17.664,0,31.984-14.766,31.984-32.969V305.455c0-18.219-14.32-32.969-31.984-32.969c-1.781,0-3.125-0.203-4.258-0.484H263.492  c-40.164-4.391-71.484-39.387-71.484-81.933v-88.601c0-31.078,20.898-57.085,48.969-64.085l158.82-35.445  c0.719-0.125,1.273-0.141,2.117-0.344C406.453,0.555,411.172,0,416.016,0C451.352,0,480,29.508,480,65.929v58.21  c0,9.094-7.156,16.484-16,16.484c-8.828,0-16-7.391-16-16.484v-58.21c0-18.211-14.32-32.953-31.984-32.953  c-2.336,0-4.609,0.336-6.781,0.82L249.461,69.07c-0.156,0.125-0.32,0.211-0.5,0.25c-14.281,3.297-24.953,16.445-24.953,32.148  v88.601c0,27.305,21.492,49.437,48.008,49.437c2.383,0,4.305,0.195,6.023,0.484h145.438C455.305,243.834,480,271.643,480,305.455  v140.607C480,482.484,451.352,512,416.016,512L416.016,512z M16,305.455c8.844,0,16,7.375,16,16.469v60.796  c0,7.922,5.492,14.422,12.719,16l102.492,21.109l-0.016,0.062c7.297,1.516,12.805,8.141,12.805,16.125  c0,9.109-7.156,16.483-15.984,16.483c-1.258,0-2.477-0.188-3.641-0.469l-0.016,0.109L32.398,428.048  c-0.148-0.094-0.289-0.297-0.43-0.328C13.727,423.892,0,407.251,0,387.345v-65.421C0,312.83,7.172,305.455,16,305.455L16,305.455z" fill="#69BEEF" fill-rule="evenodd"/></svg>